<svg xmlns="http://www.w3.org/2000/svg" viewBox="0 0 512 512" role="img" aria-label="Guardus logo">
  <rect width="512" height="512" rx="112" fill="#0f172a"/>
  <path
    d="M256 60 388 112v122c0 89-51 160-132 214-81-54-132-125-132-214V112L256 60Z"
    fill="#14b8a6"
  />
  <path
    d="M256 104 348 140v94c0 58-32 108-92 150-60-42-92-92-92-150v-94l92-36Z"
    fill="none"
    stroke="#ecfeff"
    stroke-opacity=".38"
    stroke-width="16"
    stroke-linejoin="round"
  />
  <polyline
    points="146,259 204,259 235,182 284,330 314,259 366,259"
    fill="none"
    stroke="#f8fafc"
    stroke-width="28"
    stroke-linecap="round"
    stroke-linejoin="round"
  />
  <circle cx="146" cy="259" r="17" fill="#f8fafc"/>
  <circle cx="366" cy="259" r="17" fill="#f8fafc"/>
  <circle cx="256" cy="395" r="16" fill="#86efac"/>
</svg>
